<svg xmlns="http://www.w3.org/2000/svg" viewBox="0 0 1600 900" preserveAspectRatio="xMidYMid slice">
<rect width="1600" height="900" fill="#d8d4ca"/><rect y="520" width="1600" height="380" fill="#b8b0a2"/><g stroke="#55606a" opacity=".35" stroke-width="3"><path d="M0 670 C500 620 980 650 1600 590"/><path d="M0 750 C560 700 990 715 1600 650"/></g><g transform="translate(455 260)" fill="#243242" stroke="#43505f" stroke-width="7"><path d="M405 0 C590 0 750 98 870 300 L1015 300 C900 110 790 -30 620 -65 C520 -85 420 -55 330 25 L0 370 H1090 V300 H1000 C890 120 720 35 535 55 C425 68 315 150 210 252 L70 252 C165 105 275 20 405 0Z"/><rect x="170" y="250" width="120" height="82" rx="12" fill="#d8d4ca"/><rect x="355" y="205" width="120" height="88" rx="12" fill="#d8d4ca"/><rect x="540" y="160" width="120" height="96" rx="12" fill="#d8d4ca"/></g><g opacity=".35" fill="#243242"><rect x="100" y="265" width="250" height="56" rx="7"/><text x="125" y="303" font-family="serif" font-size="31" fill="#f5eddc">কমলাপুর</text></g></svg>
