<svg xmlns="http://www.w3.org/2000/svg" viewBox="0 0 1600 900" preserveAspectRatio="xMidYMid slice">
<defs><linearGradient id="g" x1="0" x2="1" y1="0" y2="1"><stop offset="0" stop-color="#1b1d25"/><stop offset=".6" stop-color="#14141a"/><stop offset="1" stop-color="#07080b"/></linearGradient></defs><rect width="1600" height="900" fill="url(#g)"/><rect y="540" width="1600" height="360" fill="#07070a"/><circle cx="1280" cy="195" r="58" fill="#d1a858" opacity=".75"/><g stroke="#ccad6e" opacity=".22" stroke-width="3"><path d="M0 650 C500 610 980 640 1600 580"/><path d="M0 760 C560 700 990 715 1600 650"/></g><g transform="translate(455 270)" fill="#121b25" stroke="#2c4054" stroke-width="7"><path d="M405 0 C590 0 750 98 870 300 L1015 300 C900 110 790 -30 620 -65 C520 -85 420 -55 330 25 L0 370 H1090 V300 H1000 C890 120 720 35 535 55 C425 68 315 150 210 252 L70 252 C165 105 275 20 405 0Z"/><rect x="170" y="250" width="120" height="82" rx="12" fill="#101820"/><rect x="355" y="205" width="120" height="88" rx="12" fill="#101820"/><rect x="540" y="160" width="120" height="96" rx="12" fill="#101820"/></g><g opacity=".27" fill="#d2aa58"><rect x="100" y="265" width="250" height="56" rx="7"/><text x="125" y="303" font-family="serif" font-size="31" fill="#07101a">কমলাপুর</text></g></svg>
