<svg xmlns="http://www.w3.org/2000/svg" viewBox="0 0 1600 900" preserveAspectRatio="xMidYMid slice">
  <defs>
    <linearGradient id="sky" x1="0" x2="1" y1="0" y2="1">
      <stop offset="0" stop-color="#05070a"/>
      <stop offset="0.45" stop-color="#07101a"/>
      <stop offset="1" stop-color="#101015"/>
    </linearGradient>
    <linearGradient id="train" x1="0" x2="1">
      <stop offset="0" stop-color="#0d151c"/>
      <stop offset="1" stop-color="#162332"/>
    </linearGradient>
    <radialGradient id="lamp" cx="50%" cy="50%" r="50%">
      <stop offset="0" stop-color="#ffe4a0"/>
      <stop offset="0.25" stop-color="#dfb75d"/>
      <stop offset="1" stop-color="#dfb75d" stop-opacity="0"/>
    </radialGradient>
    <filter id="blur"><feGaussianBlur stdDeviation="10"/></filter>
  </defs>
  <rect width="1600" height="900" fill="url(#sky)"/>
  <rect x="0" y="555" width="1600" height="345" fill="#050507"/>
  <g opacity=".18" stroke="#d8b15d" stroke-width="2">
    <path d="M0 620 C320 570 700 590 1600 515"/>
    <path d="M0 700 C410 640 840 660 1600 590"/>
    <path d="M0 790 C420 710 900 725 1600 650"/>
  </g>
  <g opacity=".34" stroke="#20364b" stroke-width="2">
    <path d="M160 140 V760"/><path d="M320 120 V760"/><path d="M480 155 V760"/><path d="M640 125 V760"/><path d="M800 145 V760"/><path d="M960 100 V760"/><path d="M1120 130 V760"/><path d="M1280 110 V760"/><path d="M1440 135 V760"/>
  </g>
  <g transform="translate(455 270)">
    <path d="M405 0 C590 0 750 98 870 300 L1015 300 C900 110 790 -30 620 -65 C520 -85 420 -55 330 25 L0 370 H1090 V300 H1000 C890 120 720 35 535 55 C425 68 315 150 210 252 L70 252 C165 105 275 20 405 0Z" fill="url(#train)" stroke="#2b4256" stroke-width="7"/>
    <rect x="170" y="250" width="120" height="82" rx="12" fill="#07111a" stroke="#304b64" stroke-width="5"/>
    <rect x="355" y="205" width="120" height="88" rx="12" fill="#07111a" stroke="#304b64" stroke-width="5"/>
    <rect x="540" y="160" width="120" height="96" rx="12" fill="#07111a" stroke="#304b64" stroke-width="5"/>
    <circle cx="850" cy="135" r="48" fill="#d2aa58"/>
    <circle cx="850" cy="135" r="155" fill="url(#lamp)" opacity=".55" filter="url(#blur)"/>
    <circle cx="730" cy="318" r="6" fill="#d2aa58"/><circle cx="900" cy="310" r="5" fill="#d2aa58"/>
  </g>
  <g opacity=".28" fill="#d2aa58">
    <rect x="100" y="265" width="250" height="56" rx="7"/><text x="125" y="303" font-family="serif" font-size="31" fill="#07101a">কমলাপুর</text>
  </g>
  <rect width="1600" height="900" fill="url(#vignette)" opacity=".2"/>
</svg>
