<svg xmlns="http://www.w3.org/2000/svg" width="1600" height="1000" viewBox="0 0 1600 1000">
  <rect width="1600" height="1000" fill="#080604"/>
  <radialGradient id="g" cx="58%" cy="28%" r="65%"><stop offset="0" stop-color="#2c1c0c" stop-opacity=".55"/><stop offset=".45" stop-color="#14100b" stop-opacity=".22"/><stop offset="1" stop-color="#080604" stop-opacity="0"/></radialGradient>
  <rect width="1600" height="1000" fill="url(#g)"/>
  <g opacity=".16" stroke="#e8d8b6" stroke-width="1">
    <path d="M160 1000 C520 640 720 540 950 430"/>
    <path d="M290 1000 C600 650 770 560 1000 455"/>
    <path d="M610 1000 C750 710 850 580 1050 480"/>
    <path d="M1000 1000 C1010 730 1050 580 1120 500"/>
  </g>
  <g opacity=".13" fill="#d19a4a">
    <rect x="1120" y="250" width="18" height="10" rx="2"/><rect x="1164" y="253" width="18" height="10" rx="2"/><rect x="1210" y="248" width="18" height="10" rx="2"/><rect x="1258" y="255" width="18" height="10" rx="2"/>
    <rect x="1320" y="220" width="10" height="10" rx="5"/><rect x="1360" y="238" width="6" height="6" rx="3"/>
  </g>
  <g opacity=".06" fill="#e8d8b6">
    <text x="125" y="130" font-size="13" font-family="monospace" letter-spacing="4">কমলাপুর</text>
  </g>
  <filter id="n"><feTurbulence type="fractalNoise" baseFrequency="0.9" numOctaves="2" stitchTiles="stitch"/><feColorMatrix type="saturate" values="0"/><feComponentTransfer><feFuncA type="table" tableValues="0 .035"/></feComponentTransfer></filter>
  <rect width="1600" height="1000" filter="url(#n)"/>
</svg>
